<?xml version="1.0" standalone="no"?>
<!DOCTYPE svg PUBLIC "-//W3C//DTD SVG 20010904//EN"
 "http://www.w3.org/TR/2001/REC-SVG-20010904/DTD/svg10.dtd">
<svg version="1.0" xmlns="http://www.w3.org/2000/svg"
 width="326.000000pt" height="417.941605pt" viewBox="0 0 326.000000 417.941605"
 preserveAspectRatio="xMidYMid meet">
<metadata>
Created by potrace 1.12, written by Peter Selinger 2001-2015
</metadata>
<g transform="translate(-297.000000,508.963831) scale(0.100000,-0.100000)"
fill="#fff" stroke="none">
<path d="M4955 5085 c-5 -2 -44 -11 -85 -20 -145 -33 -277 -108 -393 -223
-114 -112 -184 -231 -230 -390 -18 -64 -22 -101 -21 -222 1 -187 22 -262 141
-490 181 -348 227 -437 436 -840 338 -654 354 -685 386 -783 70 -216 77 -418
21 -638 -29 -111 -16 -116 77 -26 241 231 328 575 224 886 -17 51 -132 285
-284 576 -609 1173 -597 1150 -613 1227 -22 103 -5 238 29 238 34 0 142 -66
195 -120 46 -46 74 -88 132 -202 221 -431 283 -545 312 -570 43 -38 122 -55
174 -38 37 12 180 85 197 100 8 7 -185 389 -370 738 -91 170 -176 268 -306
353 -32 20 -54 40 -49 43 5 3 42 11 81 18 163 28 346 -46 444 -179 19 -26 109
-192 200 -367 91 -176 178 -333 193 -349 36 -38 82 -57 138 -57 35 0 68 12
146 52 55 28 100 57 100 63 0 15 -393 775 -435 841 -115 180 -337 328 -552
370 -65 12 -259 19 -288 9z"/>
<path d="M3913 4548 c-194 -186 -291 -447 -262 -705 18 -167 35 -208 319 -753
575 -1106 601 -1157 617 -1237 13 -63 14 -91 5 -147 -6 -37 -15 -73 -21 -79
-15 -15 -92 17 -161 69 -79 60 -117 120 -293 464 -81 157 -156 300 -167 318
-30 48 -117 87 -177 78 -40 -5 -233 -99 -233 -112 0 -6 286 -561 373 -724 92
-173 172 -268 293 -349 41 -28 70 -52 65 -55 -5 -3 -41 -11 -80 -18 -163 -28
-346 46 -444 179 -19 26 -109 192 -200 367 -91 176 -178 333 -193 349 -36 38
-82 57 -138 57 -35 0 -68 -12 -146 -52 -55 -28 -100 -57 -100 -64 0 -7 49
-106 108 -221 60 -114 153 -293 207 -398 54 -104 112 -210 128 -235 44 -64
172 -189 241 -234 77 -51 203 -102 302 -122 118 -25 301 -15 414 21 294 95
497 305 582 602 19 64 22 103 22 218 0 186 -19 255 -137 485 -92 180 -438 848
-648 1252 -144 277 -174 345 -204 472 -45 183 -43 365 6 544 30 114 16 119
-78 30z"/>
</g>
</svg>
